<?xml version="1.0" encoding="utf-8"?>
<!-- Generator: Adobe Illustrator 18.1.1, SVG Export Plug-In . SVG Version: 6.00 Build 0)  -->
<svg version="1.1" id="Layer_1" xmlns="http://www.w3.org/2000/svg" xmlns:xlink="http://www.w3.org/1999/xlink" x="0px" y="0px"
	 viewBox="0 0 129 59" enable-background="new 0 0 129 59" xml:space="preserve">
<g>
	<g>
		<g>
			<path fill="#FFFFFF" d="M112.6,47.4c0,0,0-0.1,0-0.1c0.6,0,1.1,0,1.7,0c0.2,0,0.6-0.1,0.7-0.2c0.9-1.2,1.4-2.5,1.3-4.1
				c-0.1-4.5,0-8.9,0-13.4c0-1.9,0.2-3.9-0.1-5.8c-0.1-1.2-0.6-2.5-1.3-3.6c-0.3-0.4-1.4-0.3-2.2-0.4c-0.1,0-0.1-0.1-0.2-0.1
				c0.6-0.1,1.1-0.2,1.8-0.3c-1.7-1.2-3.2-2-5.1-1.5c0.6-0.2,1.1-0.3,1.6-0.5c-6.1,0.3-12.3,0.5-18.5,0.8c0,10.2,0,20.5,0,30.6
				c6.5,0.3,13,0.7,19.4,1c0,0,0,0.1,0,0.1c-0.9-0.2-1.8-0.5-2.9-0.8c2.6,0,2.6,0,5.6-1.4C113.8,47.7,113.2,47.5,112.6,47.4z
				 M86.3,49.3c0-10.4,0-20.8,0-31.3c-1.8,0-3.6,0-5.3,0c-1,0-1.2,0.3-1.2,1.2c0,9,0,17.9,0,26.9c0,1,0,2.1,0,3.2
				C82,49.3,84.1,49.3,86.3,49.3z M76.5,18c0,10.5,0,20.9,0,31.2c0.7,0,1.3,0,2,0c0-10.4,0-20.8,0-31.2C77.8,18,77.1,18,76.5,18z
				 M89.2,49.3c0-10.5,0-20.8,0-31.3c-0.5,0-1,0-1.4,0c0,10.5,0,20.9,0,31.3C88.2,49.3,88.6,49.3,89.2,49.3z M90.9,17.9
				c-0.1,0.1-0.3,0.2-0.4,0.3c0,0.5,0,1,0,1.6c0,8.5,0,17,0,25.5c0,1.1,0,2.2,0,3.3c0,0.9,0.4,0.9,1.1,0.6c0-0.5,0-1,0-1.5
				c0-8.5,0-16.9,0-25.4c0-1.2,0-2.4,0-3.5C91.6,18.4,91.2,18.2,90.9,17.9z"/>
			<path fill="#FFFFFF" d="M21.4,30.3c0.3-0.1,0.5-0.2,0.8-0.2c-0.5,0.1-1,0.3-1.5,0.4C20.9,30.4,21.2,30.3,21.4,30.3z M16.7,32.8
				c-0.1,0.1-0.2,0.2-0.3,0.3v0.1C16.5,33,16.6,32.9,16.7,32.8z M16.7,34.4c0.1,0.1,0.2,0.2,0.3,0.3c0.7,0.7,1.6,1.2,2.5,1.6
				c0,0,0,0,0,0c0.4,0.2,0.9,0.3,1.4,0.5C19.3,36.3,17.9,35.6,16.7,34.4z"/>
			<path fill="#FFFFFF" d="M112.6,47.4c0.6,0.1,1.3,0.3,2,0.4c-3,1.4-3,1.4-5.6,1.4c1.1,0.3,2,0.5,2.9,0.8c0,0,0-0.1,0-0.1
				c-6.5-0.3-12.9-0.7-19.4-1c0-10.2,0-20.4,0-30.6c6.2-0.3,12.4-0.6,18.5-0.8c-0.5,0.1-1,0.3-1.6,0.5c1.9-0.5,3.4,0.3,5.1,1.5
				c-0.7,0.1-1.3,0.2-1.8,0.3c0.1,0.1,0.1,0.1,0.2,0.1c0.8,0.1,1.9-0.1,2.2,0.4c0.7,1,1.2,2.3,1.3,3.6c0.2,1.9,0.1,3.9,0.1,5.8
				c0,4.5,0,8.9,0,13.4c0,1.5-0.5,2.8-1.3,4.1c-0.1,0.2-0.5,0.2-0.7,0.2c-0.6,0-1.1,0-1.7,0C112.6,47.3,112.6,47.4,112.6,47.4z"/>
			<path fill="#FFFFFF" d="M86.3,49.3c-2.2,0-4.2,0-6.5,0c0-1.1,0-2.1,0-3.2c0-9,0-17.9,0-26.9c0-0.9,0.2-1.3,1.2-1.2
				c1.7,0.1,3.5,0,5.3,0C86.3,28.5,86.3,38.8,86.3,49.3z"/>
			<path fill="#FFFFFF" d="M76.5,18c0.7,0,1.3,0,2,0c0,10.4,0,20.8,0,31.2c-0.7,0-1.3,0-2,0C76.5,38.9,76.5,28.5,76.5,18z"/>
			<path fill="#FFFFFF" d="M89.2,49.3c-0.5,0-0.9,0-1.4,0c0-10.4,0-20.8,0-31.3c0.5,0,0.9,0,1.4,0C89.2,28.5,89.2,38.8,89.2,49.3z"
				/>
			<path fill="#FFFFFF" d="M90.9,17.9c0.2,0.3,0.6,0.6,0.7,0.9c0.1,1.2,0,2.4,0,3.5c0,8.5,0,16.9,0,25.4c0,0.5,0,1,0,1.5
				c-0.7,0.3-1.1,0.3-1.1-0.6c0-1.1,0-2.2,0-3.3c0-8.5,0-17,0-25.5c0-0.5,0-1,0-1.6C90.7,18.1,90.8,18,90.9,17.9z"/>
		</g>
	</g>
	<path fill="#FFFFFF" d="M75.5,49.3V18c-1.1-0.4-1.7,0-1.9,1.1c0,0,0,0.1,0,0.1c-0.7,2.1-1.4,4.1-2.4,6.1c0,0,0,0,0,0
		c-0.4,0.6-0.8,1.2-1.3,1.8c-0.5,0.6-0.9,1.1-1.5,1.4c-1.1,0.7-2.3,1.1-3.7,1.2h0c-0.6,0-1.2-0.1-1.8-0.2
		c-7.7-1.5-15.6-1.8-23.4-1.6c-5.8,0.2-11.6,0.6-17.2,2.1c-0.3,0.1-0.5,0.1-0.8,0.2c-0.2,0.1-0.5,0.1-0.7,0.2c0,0-0.1,0-0.1,0
		c-1.5,0.5-2.9,1-3.9,2.3c-0.1,0.1-0.2,0.2-0.3,0.3v1v0.1c0.1,0.1,0.2,0.2,0.3,0.3c0.1,0.1,0.2,0.2,0.3,0.3c0.8,0.7,1.6,1.2,2.5,1.6
		c0,0,0,0,0,0c0.4,0.2,0.9,0.4,1.4,0.5c0,0,0,0,0,0c0.4,0.1,0.8,0.2,1.2,0.3c0,0,0,0,0.1,0c5.7,1.5,11.5,2,17.4,2.2
		c7.8,0.2,15.7-0.1,23.4-1.6c0.6-0.1,1.2-0.2,1.8-0.2c0,0,0,0,0,0c1.4,0.1,2.6,0.5,3.7,1.2c0.2,0.2,0.4,0.3,0.7,0.5
		c0.3,0.3,0.5,0.6,0.8,0.9c0.4,0.5,0.8,1,1.1,1.6c0,0,0,0,0,0c0,0.1,0.1,0.2,0.1,0.2c0,0,0,0,0,0c1,1.9,1.7,4,2.4,6.1
		c0,0,0,0.1,0,0.1c0,0,0,0,0,0.1C73.8,49.3,74.4,49.6,75.5,49.3z"/>
</g>
</svg>
