<?xml version="1.0" encoding="utf-8"?>
<!-- Generator: Adobe Illustrator 18.1.1, SVG Export Plug-In . SVG Version: 6.00 Build 0)  -->
<svg version="1.1" id="Layer_1" xmlns="http://www.w3.org/2000/svg" xmlns:xlink="http://www.w3.org/1999/xlink" x="0px" y="0px"
	 viewBox="0 0 300 300" enable-background="new 0 0 300 300" xml:space="preserve">
<g>
	<g>
		<g>
			<path fill="#FFFFFF" d="M174.3,62.9c-0.1,0-0.2-0.1-0.3-0.1c0-1.1,0-2.3,0-3.4c0-0.5-0.1-1.2-0.5-1.4c-2.4-1.7-5-2.7-8.1-2.7
				c-8.9,0.1-17.9,0-26.8,0c-3.9,0-7.7-0.3-11.6,0.1c-2.5,0.3-5,1.3-7.1,2.6c-0.8,0.5-0.5,2.9-0.7,4.4c0,0.1-0.1,0.2-0.2,0.4
				c-0.2-1.1-0.4-2.1-0.6-3.6c-2.4,3.4-4.1,6.4-3,10.2c-0.3-1.1-0.7-2.3-1-3.2c0.5,12.2,1.1,24.6,1.6,37.1c20.4,0,41,0,61.3,0
				c0.7-13.1,1.3-26,2-38.9c0.1,0,0.1,0,0.2,0c-0.5,1.8-1,3.6-1.6,5.9c0.1-5.2,0.1-5.2-2.8-11.3C174.8,60.3,174.5,61.6,174.3,62.9z
				 M178,115.5c-20.9,0-41.6,0-62.6,0c0,3.6,0.1,7.1,0,10.6c-0.1,1.9,0.7,2.3,2.4,2.3c17.9-0.1,35.9,0,53.8,0c2.1,0,4.1,0,6.4,0
				C178,123.9,178,119.9,178,115.5z M115.5,135.1c20.9,0,41.7,0,62.5,0c0-1.4,0-2.6,0-4c-20.9,0-41.6,0-62.5,0
				C115.5,132.5,115.5,133.8,115.5,135.1z M178.1,109.7c-21,0-41.7,0-62.5,0c0,1,0,1.9,0,2.9c20.9,0,41.7,0,62.5,0
				C178.1,111.5,178.1,110.7,178.1,109.7z M115.2,106.1c0.2,0.3,0.4,0.5,0.7,0.8c1,0,2.1,0,3.1,0c17,0,34,0,51,0c2.2,0,4.4,0,6.6,0
				c1.8,0,1.8-0.9,1.1-2.2c-1,0-2,0-2.9,0c-16.9,0-33.8,0-50.8,0c-2.4,0-4.7-0.1-7.1,0.1C116.3,104.8,115.8,105.7,115.2,106.1z"/>
			<path fill="#FFFFFF" d="M140,245.2c-0.2-0.5-0.3-1.1-0.5-1.6c0.3,1,0.5,2,0.9,3C140.3,246.1,140.1,245.7,140,245.2z M145.1,254.7
				c0.2,0.2,0.3,0.4,0.5,0.5h0.2C145.5,255,145.3,254.9,145.1,254.7z M148.4,254.7c0.2-0.2,0.4-0.4,0.6-0.6c1.5-1.4,2.4-3.2,3.2-5
				c0,0,0,0,0,0c0.4-0.9,0.7-1.8,0.9-2.7C152.1,249.3,150.7,252.2,148.4,254.7z"/>
			<path fill="#FFFFFF" d="M174.3,62.9c0.3-1.3,0.5-2.5,0.8-4c2.8,6.1,2.8,6.1,2.8,11.3c0.6-2.3,1.1-4.1,1.6-5.9c-0.1,0-0.1,0-0.2,0
				c-0.7,12.9-1.3,25.8-2,38.9c-20.3,0-40.9,0-61.3,0c-0.6-12.5-1.1-24.8-1.6-37.1c0.3,0.9,0.6,2.1,1,3.2c-1-3.8,0.7-6.8,3-10.2
				c0.2,1.5,0.4,2.5,0.6,3.6c0.1-0.2,0.2-0.3,0.2-0.4c0.2-1.5-0.1-3.8,0.7-4.4c2.1-1.3,4.6-2.4,7.1-2.6c3.8-0.4,7.7-0.1,11.6-0.1
				c8.9,0,17.9,0.1,26.8,0c3.1,0,5.7,1,8.1,2.7c0.3,0.2,0.4,0.9,0.5,1.4c0.1,1.1,0,2.3,0,3.4C174.1,62.8,174.2,62.8,174.3,62.9z"/>
			<path fill="#FFFFFF" d="M178,115.5c0,4.4,0,8.5,0,12.9c-2.2,0-4.3,0-6.4,0c-17.9,0-35.9,0-53.8,0c-1.8,0-2.5-0.4-2.4-2.3
				c0.1-3.5,0-7,0-10.6C136.4,115.5,157.1,115.5,178,115.5z"/>
			<path fill="#FFFFFF" d="M115.5,135.1c0-1.3,0-2.6,0-4c20.9,0,41.6,0,62.5,0c0,1.3,0,2.5,0,4C157.2,135.1,136.5,135.1,115.5,135.1
				z"/>
			<path fill="#FFFFFF" d="M178.1,109.7c0,1.1,0,1.9,0,2.9c-20.8,0-41.6,0-62.5,0c0-0.9,0-1.8,0-2.9
				C136.4,109.7,157.1,109.7,178.1,109.7z"/>
			<path fill="#FFFFFF" d="M115.2,106.1c0.6-0.5,1.1-1.3,1.7-1.3c2.4-0.2,4.7-0.1,7.1-0.1c16.9,0,33.8,0,50.8,0c1,0,1.9,0,2.9,0
				c0.7,1.4,0.7,2.2-1.1,2.2c-2.2,0-4.4,0-6.6,0c-17,0-34,0-51,0c-1,0-2.1,0-3.1,0C115.7,106.7,115.4,106.4,115.2,106.1z"/>
		</g>
	</g>
	<path fill="#FFFFFF" d="M178,137.1h-62.4c-0.7,2.2,0,3.4,2.2,3.9c0.1,0,0.2,0.1,0.3,0.1c4.1,1.3,8.2,2.8,12.1,4.7c0,0,0,0,0,0
		c1.2,0.8,2.4,1.6,3.6,2.5c1.2,0.9,2.1,1.9,2.9,2.9c1.4,2.1,2.2,4.6,2.3,7.4v0.1c0,1.2-0.1,2.4-0.4,3.7c-3.1,15.5-3.7,31.1-3.2,46.8
		c0.3,11.6,1.3,23.2,4.3,34.5c0.1,0.5,0.3,1.1,0.5,1.6c0.1,0.5,0.3,0.9,0.4,1.4c0,0.1,0,0.2,0.1,0.2c0.9,2.9,2.1,5.8,4.6,7.8
		c0.2,0.2,0.4,0.4,0.7,0.5h1.9h0.2c0.2-0.2,0.4-0.4,0.5-0.5c0.2-0.2,0.3-0.4,0.5-0.6c1.3-1.5,2.4-3.2,3.2-5c0,0,0,0,0,0
		c0.4-0.9,0.7-1.8,1-2.7c0,0,0,0,0,0c0.2-0.8,0.5-1.5,0.7-2.3c0,0,0-0.1,0-0.1c3.1-11.4,4-23,4.4-34.7c0.5-15.7-0.1-31.3-3.2-46.8
		c-0.2-1.3-0.4-2.5-0.4-3.6c0,0,0-0.1,0-0.1c0.1-2.8,0.9-5.3,2.3-7.4c0.3-0.5,0.6-0.9,1-1.3c0.5-0.6,1.1-1.1,1.8-1.6
		c1-0.8,2.1-1.5,3.1-2.2c0,0,0,0,0,0c0.2-0.1,0.3-0.2,0.5-0.3c0,0,0,0,0,0c3.9-1.9,8-3.4,12.1-4.7c0.1,0,0.2-0.1,0.3-0.1
		c0,0,0.1,0,0.1-0.1C178,140.4,178.7,139.2,178,137.1z"/>
</g>
</svg>
