<?xml version="1.0" encoding="utf-8"?>
<!-- Generator: Adobe Illustrator 18.1.1, SVG Export Plug-In . SVG Version: 6.00 Build 0)  -->
<svg version="1.1" id="Layer_1" xmlns="http://www.w3.org/2000/svg" xmlns:xlink="http://www.w3.org/1999/xlink" x="0px" y="0px"
	 viewBox="0 0 720 460" enable-background="new 0 0 720 460" xml:space="preserve">
<circle fill="#B8B098" stroke="#FFFFFF" stroke-width="5" stroke-miterlimit="10" cx="100" cy="100" r="92"/>
<circle fill="#CADB2E" stroke="#FFFFFF" stroke-width="5" stroke-miterlimit="10" cx="100" cy="360" r="92"/>
<circle fill="#D8A460" stroke="#FFFFFF" stroke-width="5" stroke-miterlimit="10" cx="360" cy="100" r="92"/>
<circle fill="#9CAE87" stroke="#FFFFFF" stroke-width="5" stroke-miterlimit="10" cx="360" cy="360" r="92"/>
<circle fill="#F15A29" stroke="#FFFFFF" stroke-width="5" stroke-miterlimit="10" cx="620" cy="101.2" r="92"/>
<circle fill="#2C8878" stroke="#FFFFFF" stroke-width="5" stroke-miterlimit="10" cx="620" cy="360" r="92"/>
<g>
	<path fill="#FFFFFF" d="M101.3,335.6c-3.9,3.8-7.9,7.4-11.5,11.4c-2.7,3-5.5,4-9.5,3.9c-10.2-0.3-47.4-0.1-57.6-0.1
		c-0.7,0-1.5,0-2.6,0c0.6-0.7,0.9-1.1,1.2-1.5c8.4-8.4,16.7-16.7,25.1-25c0.7-0.7,11.9-1.2,12.8-1.2c17-0.1,51-0.1,68,0
		c17.6,0.1,34.1,11.9,39.2,27.9c5.5,17.4-5.5,33.7-23.8,35.5c-17.5,1.8-36.6-9.4-42.8-26.2C96.8,352,97.1,343.8,101.3,335.6z
		 M129.8,340.1c-0.5,0-1.4,0.1-2.2,0.2c-7.9,1-12.7,8.1-10.6,15.7c2.4,9,12.8,15.3,21.8,13.3c8.2-1.8,12.2-9.3,9.2-17.2
		C145.4,345.1,137.8,340,129.8,340.1z"/>
	<path fill="#FFFFFF" d="M96.6,342.2c-0.1,3.9-0.6,8-0.1,11.9c1.3,9.9,6.6,17.6,14.2,23.8c7.1,5.7,15.1,9.4,24.3,10.3
		c6.1,0.6,11.9-0.5,17.6-3.1c-15.8,21.4-38,23-57.3,7.5c-9.2-7.4-13.9-17.4-13.2-29.5c0.3-4.7,1.5-8.9,5.4-12.2
		C90.9,348.2,93.8,345,96.6,342.2z"/>
	<path fill="#FFFFFF" d="M134.3,367.4c-5.2-0.3-10.1-2.8-13.3-8c-4.9-8-0.3-16.6,9.1-17c6.3-0.3,13.2,4.1,15.5,10
		C148.7,360.1,143.6,367.4,134.3,367.4z"/>
</g>
<g>
	<path fill="#FFFFFF" d="M365.8,108.2c3.4-3,6.8-5.9,10.1-9c2.4-2.3,5-3.2,8.3-2.5c5,1.1,10.1,1.8,15.1,2.7c2.7,0.5,3,1.4,1.2,3.5
		c-19.6,22.5-39.2,45-58.8,67.5c-1.7,2-3.6,2.6-6.1,1.7c-4.8-1.7-9.7-3.2-14.5-4.8c-2.7-0.9-3.2-2.1-2.1-4.6
		c10.1-23.5,20.2-47.1,30.4-70.6c1.1-2.6,2.3-3.1,5.1-2.3c3.4,1.1,6.8,2.2,10.2,3.4c2.7,0.9,3.3,2.1,2.7,4.8c-0.5,2.3-1.1,4.6-1.7,7
		c-0.2,1-0.3,1.9-0.5,2.9C365.3,108,365.6,108.1,365.8,108.2z"/>
	<path fill="#FFFFFF" d="M369.1,100.6c0.2-0.6,0.2-1.2,0.5-1.7c2.5-4.4,2.2-8.8-0.2-13.2c-1.5-2.8-2.6-5.8-3.4-8.8
		c-0.6-2.2-0.4-4.6-0.5-7c0-0.6,0.2-1.4,0-1.9c-1.3-3.2-0.9-6.5,0.6-9.4c4.6-9.3,9.3-18.6,14.2-27.7c1.5-2.8,4.4-3.8,7.5-3.3
		c3.8,0.6,6.3,3.1,7.2,6.7c0.4,1.5,0.1,3.6-0.7,5c-5,8.4-10.1,16.8-15.5,25c-1.3,2-3.7,3.5-5.8,4.7c-1.8,1.1-2.7,2.4-2.4,4.3
		c0.4,2.2,0.9,4.3,1.6,6.4c1.4,3.9,3.1,7.8,4.5,11.7c0.3,0.8,0.2,2.1-0.3,2.6c-2.1,2.5-4.3,4.8-6.5,7.1
		C369.5,101,369.3,100.8,369.1,100.6z"/>
</g>
<g>
	<path fill="#FFFFFF" d="M650.9,26.2c1.6,5.6,1.4,11.2,0.4,16.8c-0.1,0.8-1.4,1.8-2.3,1.9c-1.9,0.3-3.8,0.1-5.7,0.1
		c-1.7,0-3-0.7-3.8-2.3c-0.4-0.7-1.4-1.4-2.2-1.7c-3.2-1-6.4,1.2-6.8,4.5c-0.3,3.1-0.1,6.3-1.1,9.1c-3,8.1-1,16.4-1.2,24.5
		c-0.3,11.2,0.2,22.5,0.3,33.7c0,0.9,0,1.8,0,2.8c-4.6,0-8.9,0-13.5,0c0-1,0-2,0-2.9c0.3-17.7,0.5-35.5,0.8-53.2
		c0-1.3,0.5-2.8-1.2-3.6c-0.5-0.2-0.4-1.5-0.5-2.3c-0.4-3.7-0.8-7.4-1.2-10.9c-5.7-2.5-10.8-0.7-15.8,1.4c-3,1.3-5.2,3.5-6.2,6.8
		c-0.2,0.6-1.1,0.9-1.6,1.3c-0.4-0.6-1-1.1-1-1.7c-1.1-8,3.3-16.1,11-19.1c3.9-1.5,8.2-2.1,12.3-2.7c4.2-0.7,8.5-1.2,12.7-1.2
		c3.4,0,7,0.5,10.1,2.4c1.9,1.2,4.2,0.3,5.3-1.7c0.3-0.7,0.7-1.3,1-2C643.9,26.2,647.4,26.2,650.9,26.2z"/>
	<path fill="#FFFFFF" d="M617.5,176.1c-3.3-2-4.5-5-4.4-8.8c0.3-15.5,0.5-31,0.6-46.5c0-2.2,0.6-2.9,2.8-2.8c3.7,0.2,7.5,0.1,11.2,0
		c1.6,0,2.2,0.6,2.2,2.2c0.2,16.2,0.4,32.3,0.6,48.5c0,3.4-1.6,5.8-4.5,7.4C623.1,176.1,620.3,176.1,617.5,176.1z"/>
</g>
<g>
	<path fill="#FFFFFF" d="M383,383.9c-0.5-2.5,0.1-3.7,1.6-4.9c2.2-1.7,2-5.5-0.3-7.2c-1.9-1.4-1.7-2.2-0.2-3.8
		c2.2-2.3,1-6.4-1.8-7.7c-0.9-0.4-1.5-1.1-2.3-1.7c0.1-0.2,0.2-0.4,0.2-0.5c-2,0-4,0-6,0c-1.5,0-2.2-0.9-1.3-2.2
		c2.5-3.9,1.4-7.5-0.8-11c-0.5-0.8-0.8-1.7-1.4-2.9c-2.9,0-6.1-0.3-9.3,0.1c-7.6,0.8-14.5-1.1-21.1-4.7c-1-0.6-1.5-1.1-1.5-2.3
		c0.1-5.2,0-10.4,0.1-15.6c0-0.7,0.7-1.7,1.4-2.1c3.1-1.5,6.3-2.9,9.5-4.3c0.8-0.3,1.7-0.5,2.6-0.5c20,0,39.9,0,59.9,0
		c2.7,0,4.5,1.4,6.1,3.2c6.2,7.1,4.1,20.7-3.9,25.8c-1.7,1.1-3.4,2.4-4.8,3.9c-1.8,1.8-2.7,4-2.6,6.6c0.6,10.2,2.3,20.2,5,30
		c0.1,0.5,0.8,1.1,1.4,1.3c1.9,0.5,2.9,1.7,2.9,3.6c0,5.4,0,10.8,0,16.2c0,2.6-1.6,4.2-4.2,4.2c-15,0-30,0-44.9,0
		c-2.6,0-4.2-1.6-4.2-4.2c-0.1-4.2-0.1-8.5,0-12.7c0-3,1.6-4.2,4.6-4.5C372.5,385.5,377.6,384.6,383,383.9z"/>
	<path fill="#FFFFFF" d="M326.5,325.1c0.9-7.4,1.6-7.8,10.7-7.1c0,6.1,0,12.2,0,18.3c-7,0.6-11,1.4-10.6-6.3c-1.7-1.4-3.2-2.7-4.8-4
		c0-0.2,0-0.4,0.1-0.6C323.4,325.4,324.9,325.3,326.5,325.1z M336.3,332.7c-1.4-1-2.2-2-2.9-1.9c-0.7,0.1-1.7,1.1-1.8,1.9
		c-0.1,0.5,1,1.7,1.7,1.7C334,334.5,334.8,333.6,336.3,332.7z"/>
	<path fill="#FFFFFF" d="M304.8,329.3c-1.5,0-3.1,0.1-4.6-0.1c-0.7-0.1-1.7-0.7-2-1.3c-0.2-0.5,0.1-1.9,0.6-2
		c0.8-0.4,2.1-0.5,2.8-0.1c1.3,0.7,2.3,1.9,3.5,2.9C305.1,328.8,304.9,329,304.8,329.3z"/>
	<path fill="#FFFFFF" d="M312.8,329c-3.3,0.8-4.2,0.3-6.9-3.4C309.2,324.8,310.1,325.3,312.8,329z"/>
	<path fill="#FFFFFF" d="M320.9,329c-3.7,1.3-5.2-1.3-7.1-3.4C317,324.7,318,325.2,320.9,329z"/>
</g>
<g>
	<path fill="#FFFFFF" d="M82.5,83.1c1.9-0.3,2.8-1.1,3.1-3c0.6-3.6,4.2-5.7,7.7-4.8c3.3,0.8,5.4,4.3,4.6,7.8
		c-0.8,3.3-4.2,5.3-7.7,4.6c-1-0.2-2.1,0.1-3.1,0.5C76.6,92.8,66,97.3,54.7,99.8c-3.3,0.8-6.9,1.2-10.3,1.1
		c-5.4-0.1-7.7-4.8-4.2-8.9c3.5-4.2,7.7-7.8,11.9-11.4c3.1-2.7,6.5-4.9,9.9-7.2c1-0.7,1.5-1.4,1.4-2.6c-0.1-3.7,0.1-7.5-0.1-11.2
		c-0.2-2.9,1.1-4.8,3.3-6.3c4-2.7,8.4-4.4,13.1-5.5c17.3-4.1,34.5-4,51.6,1c3.1,0.9,6,2.6,8.8,4.2c2.3,1.3,3.3,3.5,3.3,6.3
		c-0.1,26.9-0.1,53.9,0,80.8c0,3.3-1.2,5.4-3.8,7.1c-4.7,3-9.9,4.7-15.4,5.8c-16.5,3.3-33,3.2-49.2-1.8c-3.1-0.9-5.9-2.7-8.7-4.3
		c-2.1-1.2-2.9-3.3-2.9-5.9c0.1-12.7,0.1-25.3,0-38c0-1.4,0.4-2.1,1.8-2.6c6.9-2.9,13.7-5.9,20.5-9c1.4-0.6,2.6-0.9,4.2-0.5
		c3.9,1,8-1,10-4.6c2.1-3.6,1.5-8.1-1.3-11.2c-2.8-3-7.2-3.9-10.8-2.2c-3.7,1.7-6,5.5-5.6,9.6C82.3,82.6,82.4,82.8,82.5,83.1z
		 M104,49.9C93.7,50,83.8,51,74.4,54.8c-1.7,0.7-3.4,1.6-5,2.7c-1.4,0.9-1.4,3.5,0,4c5.6,2.1,11.3,4.2,17.1,5.8
		c2.7,0.7,5.4,1.2,7.8,2.6c2.2,1.2,4.5,2.6,6.9,3.4c3.6,1.1,5.5,3.3,6.1,6.9c0.4,2.6,0.7,5.3,1.3,7.8c1.4,5.3,3.5,6.2,8.4,3.9
		c2.5-1.1,3.9,0,4.7,2.5c1.4,4.3,3.1,8.5,5,12.6c0.9,1.9,3.2,2.2,5.9,1.4c1.7-0.5,2.9-1.4,2.9-3.4c0.1-13.1,0.2-26.1,0.3-39.2
		c0-0.7,0-1.5-0.2-2.2c-0.4-1.1,0-1.6,1-2c2.4-1.2,2.5-3.3,0.3-4.8c-1.4-0.9-2.9-1.7-4.5-2.3C123.2,50.8,113.5,50.1,104,49.9z
		 M46.2,94.7c5.8-0.2,11.1-1.9,16.5-3.6c0.3-0.1,0.7-0.7,0.7-1.1c0.1-3.2,0-6.3,0-10C57,84.6,51.1,89,46.2,94.7z"/>
</g>
<g>
	<path fill="#FFFFFF" d="M690.8,399.2c-1,0-2,0-3.3,0c0-3,0-5.9,0-8.9c-20,0-39.9,0-59.9,0c0,2.4-0.1,4.6,0,6.9
		c0.1,1.5-0.4,2.1-2,2.1c-20.9,0-41.8,0-62.8-0.1c-5.6,0-10.7-4-12.7-9.4c-0.3-0.8-0.6-1.6-0.9-2.4c0-10.5,0-21.1,0-31.6
		c0.5-2.1,0.9-4.1,1.4-6.2c4.9-18,21.9-30,40.7-28.7c18.1,1.2,33.3,15.3,35.8,33.5c0.3,2.3,0.4,4.7,0.4,7c0,8.3,0,16.6,0,25.3
		c1.1,0,2,0,2.9,0c19.2,0,38.5,0,57.7,0c0.9,0,1.7,0.1,2.6,0.2C690.8,391,690.8,395.1,690.8,399.2z M611.5,360.1
		c0.1-12.5-10.3-23-22.8-23.1c-12.7-0.1-23.2,10.3-23.2,23c0,12.6,10.3,23,22.9,23.1C600.9,383.1,611.4,372.8,611.5,360.1z"/>
	<path fill="#FFFFFF" d="M631.1,363.9c-0.2-3.3-0.2-6.5-0.6-9.5c-0.4-3.1-1.3-6.1-1.9-9.1c5.7,0.6,9.9,4.1,9.6,8.1
		C637.8,358,633.9,363.9,631.1,363.9z"/>
</g>
</svg>
